# 3ds Max Wavefront OBJ Exporter v0.97b - (c)2007 guruware
# File Created: 23.01.2017 00:33:36

#
# object Plane001
#

v -11.6053 17.9938 0.0000
v 8.9492 17.9938 0.0000
v 8.9492 17.9938 -15.4573
v -11.6053 17.9938 -15.4573
v 8.9492 0.9144 -15.4573
v -11.6053 0.9144 -15.4573
v 8.9492 0.7094 -0.0000
v -11.6053 0.7094 -0.0000
# 8 vertices

vn 0.0000 1.0000 0.0000
vn 0.0000 0.0000 -1.0000
vn 0.0000 -0.9999 -0.0133
vn 1.0000 0.0000 -0.0000
vn -1.0000 0.0000 -0.0000
# 5 vertex normals

vt 0.0000 1.0000 0.0000
vt 1.0000 1.0000 0.0000
# 2 texture coords

g Plane001
f 1/1/1 2/2/1 3/2/1 
f 3/2/1 4/1/1 1/1/1 
f 4/1/2 3/2/2 5/2/2 
f 5/2/2 6/1/2 4/1/2 
f 6/1/3 5/2/3 7/2/3 
f 7/2/3 8/1/3 6/1/3 
f 7/2/4 5/2/4 3/2/4 
f 3/2/4 2/2/4 7/2/4 
f 6/1/5 8/1/5 1/1/5 
f 1/1/5 4/1/5 6/1/5 
# 10 faces

