# Blender v2.76 (sub 0) OBJ File: 'character1N.blend'
# www.blender.org
v -0.543691 2.902959 0.282310
v -0.543691 2.902959 -0.380356
v -0.543691 -0.016929 -0.543691
v 0.599649 2.931947 -0.365613
v 0.543691 -0.016929 -0.543691
v 0.599649 2.931947 0.312964
v 0.543691 -0.016929 0.543691
v -0.543691 -0.016929 0.543691
v 0.283954 4.401691 0.008889
v 0.326923 4.426486 -0.443406
v -0.235814 4.386927 -0.466213
v 0.566521 3.309375 0.312964
v -0.543691 3.272410 0.282310
v 0.582516 3.309375 -0.365613
v 2.714226 3.471707 -0.365613
v 2.473674 3.094279 -0.365613
v -0.543691 3.272410 -0.380356
v -0.251120 4.401366 0.014789
v 2.714226 3.471707 0.312964
v 2.473674 3.094279 0.312964
vn -1.000000 -0.000000 0.000000
vn 0.011300 0.060100 -0.998100
vn 0.999800 -0.019000 0.000000
vn 0.000000 0.089200 0.996000
vn 0.000000 -1.000000 -0.000000
vn -0.072000 0.996300 0.047800
vn -0.027600 -0.000000 0.999600
vn 0.000000 0.000000 -1.000000
vn 0.013100 0.000600 -0.999900
vn -0.963900 0.263300 -0.038600
vn 0.044600 -0.059200 -0.997200
vn 0.966300 0.256300 0.022800
vn -0.034800 0.239000 0.970400
vn 0.843300 -0.537500 0.000000
vn 0.086300 -0.996300 0.000000
vn -0.000000 -0.000000 1.000000
vn -0.075400 0.997200 -0.001800
vn 0.000000 0.055900 -0.998400
vn -0.028700 0.078500 0.996500
vn -0.000900 0.999500 -0.030000
vn -0.026700 -0.002300 0.999600
vn 0.012900 0.000000 -0.999900
vn -0.968000 0.250900 0.000000
vn 0.015700 -0.081100 -0.996600
vn 0.967900 0.228700 0.104500
vn 0.010500 0.270700 0.962600
vn -0.075900 0.997100 0.000000
s off
f 1//1 2//1 3//1
f 2//2 4//2 5//2
f 6//3 7//3 5//3
f 1//4 8//4 7//4
f 3//5 5//5 7//5
f 9//6 10//6 11//6
f 12//7 13//7 1//7
f 14//8 15//8 16//8
f 17//9 14//9 4//9
f 18//10 11//10 17//10
f 11//11 10//11 14//11
f 9//12 12//12 14//12
f 18//13 13//13 12//13
f 19//14 20//14 16//14
f 4//15 16//15 20//15
f 12//16 6//16 20//16
f 14//17 12//17 19//17
f 8//1 1//1 3//1
f 3//18 2//18 5//18
f 4//3 6//3 5//3
f 6//19 1//19 7//19
f 8//5 3//5 7//5
f 18//20 9//20 11//20
f 6//21 12//21 1//21
f 4//8 14//8 16//8
f 2//22 17//22 4//22
f 13//23 18//23 17//23
f 17//24 11//24 14//24
f 10//25 9//25 14//25
f 9//26 18//26 12//26
f 15//14 19//14 16//14
f 6//15 4//15 20//15
f 19//16 12//16 20//16
f 15//27 14//27 19//27
