# Blender v2.76 (sub 0) OBJ File: ''
# www.blender.org
v 3.388532 0.047534 -3.378256
v 3.388532 0.047534 3.378256
v -3.388532 0.047534 3.378255
v -3.388530 0.047534 -3.378257
v 3.388533 2.047534 -3.378254
v 3.388530 2.047534 3.378258
v -3.388533 2.047534 3.378254
v -3.388531 2.047534 -3.378256
v 4.169320 2.047534 -4.156673
v 4.169316 2.047534 4.156677
v -4.169317 2.047534 -4.156675
v -4.169320 2.047534 4.156673
v -0.000000 3.276292 0.000000
v 3.388532 0.047534 -1.689128
v 3.388532 0.047534 0.000000
v 3.388532 0.047534 1.689128
v 1.694266 0.047534 -3.378256
v 0.000001 0.047534 -3.378257
v -1.694265 0.047534 -3.378257
v 3.388532 0.547534 -3.378255
v 3.388533 1.047534 -3.378255
v 3.388533 1.547534 -3.378254
v 1.694266 0.047534 3.378256
v -0.000000 0.047534 3.378255
v -1.694266 0.047534 3.378255
v 3.388531 0.547534 3.378256
v 3.388531 1.047534 3.378257
v 3.388530 1.547534 3.378257
v -3.388532 0.047534 1.689127
v -3.388531 0.047534 -0.000001
v -3.388531 0.047534 -1.689129
v -3.388532 0.547534 3.378255
v -3.388533 1.047534 3.378255
v -3.388533 1.547534 3.378254
v -3.388530 0.547534 -3.378257
v -3.388531 1.047534 -3.378257
v -3.388531 1.547534 -3.378256
v 3.388532 2.047534 -1.689126
v 3.388531 2.047534 0.000002
v 3.388531 2.047534 1.689130
v 1.694267 2.047534 -3.378255
v 0.000001 2.047534 -3.378255
v -1.694265 2.047534 -3.378255
v 1.694264 2.047534 3.378257
v -0.000002 2.047534 3.378256
v -1.694267 2.047534 3.378255
v -3.388533 2.047534 1.689127
v -3.388532 2.047534 -0.000001
v -3.388532 2.047534 -1.689128
v 1.694267 1.547534 -3.378255
v 0.000001 1.547534 -3.378255
v -1.694265 1.547534 -3.378256
v 1.694267 1.047534 -3.378255
v 0.000001 1.047534 -3.378256
v -1.694265 1.047534 -3.378256
v 1.694267 0.547534 -3.378256
v 0.000001 0.547534 -3.378256
v -1.694265 0.547534 -3.378256
v -3.388532 0.547534 1.689127
v -3.388531 0.547534 -0.000001
v -3.388531 0.547534 -1.689129
v -3.388532 1.047534 1.689127
v -3.388532 1.047534 -0.000001
v -3.388531 1.047534 -1.689129
v -3.388532 1.547534 1.689127
v -3.388532 1.547534 -0.000001
v -3.388531 1.547534 -1.689129
v 1.694265 0.547534 3.378256
v -0.000001 0.547534 3.378256
v -1.694267 0.547534 3.378255
v 1.694265 1.047534 3.378256
v -0.000001 1.047534 3.378256
v -1.694267 1.047534 3.378255
v 1.694264 1.547534 3.378257
v -0.000001 1.547534 3.378256
v -1.694267 1.547534 3.378255
v 3.388532 0.547534 -1.689127
v 3.388532 0.547534 0.000000
v 3.388531 0.547534 1.689128
v 3.388532 1.047534 -1.689127
v 3.388532 1.047534 0.000001
v 3.388531 1.047534 1.689129
v 3.388532 1.547534 -1.689126
v 3.388532 1.547534 0.000001
v 3.388531 1.547534 1.689129
v 1.694266 0.047534 -1.689128
v 0.000000 0.047534 -1.689129
v -1.694265 0.047534 -1.689129
v 1.694266 0.047534 -0.000000
v 0.000000 0.047534 -0.000001
v -1.694265 0.047534 -0.000001
v 1.694266 0.047534 1.689128
v 0.000000 0.047534 1.689127
v -1.694266 0.047534 1.689127
v 1.694265 0.047531 0.826802
v -0.000000 0.047531 0.826802
v 1.694266 1.547531 0.826803
v 0.000000 1.547531 0.826803
v 1.694266 1.047531 0.826803
v 0.000000 1.047531 0.826802
v 1.694266 0.547530 0.826802
v -0.000000 0.547530 0.826802
v 1.694266 1.047532 -0.488300
v 1.694266 0.547532 -0.488300
v 0.000000 1.547532 -0.488300
v 0.000000 1.047532 -0.488300
v -0.000000 0.047532 -0.488301
v 1.694266 0.047532 -0.488301
v 0.000000 0.547532 -0.488300
v 1.694266 1.547532 -0.488299
v -1.465153 1.047531 0.826802
v -1.465153 1.547531 0.826802
v -1.465153 0.547531 0.826802
v -1.465153 0.981881 0.826801
v -1.465153 1.547532 -0.488300
v -1.465153 0.983690 -0.488301
v -1.465153 1.047532 -0.488300
v -1.465153 0.547532 -0.488301
v 1.694266 0.136202 -3.378256
v 0.000001 0.136202 -3.378256
v 1.694266 0.136199 -0.488300
v -0.000000 0.136199 -0.488301
v 1.694266 0.047534 -1.689128
v 0.000000 0.047534 -1.689129
v 1.694266 0.047534 -0.000000
v 0.000000 0.047534 -0.000001
vt 3.388532 0.047534 -3.378256
vt 3.388532 0.047534 3.378256
vt -3.388532 0.047534 3.378255
vt -3.388530 0.047534 -3.378257
vt 3.388533 2.047534 -3.378254
vt 3.388530 2.047534 3.378258
vt -3.388533 2.047534 3.378254
vt -3.388531 2.047534 -3.378256
vt 4.169320 2.047534 -4.156673
vt 4.169316 2.047534 4.156677
vt -4.169317 2.047534 -4.156675
vt -4.169320 2.047534 4.156673
vt -0.000000 3.276292 0.000000
vt 3.388532 0.047534 -1.689128
vt 3.388532 0.047534 0.000000
vt 3.388532 0.047534 1.689128
vt 1.694266 0.047534 -3.378256
vt 0.000001 0.047534 -3.378257
vt -1.694265 0.047534 -3.378257
vt 3.388532 0.547534 -3.378255
vt 3.388533 1.047534 -3.378255
vt 3.388533 1.547534 -3.378254
vt 1.694266 0.047534 3.378256
vt -0.000000 0.047534 3.378255
vt -1.694266 0.047534 3.378255
vt 3.388531 0.547534 3.378256
vt 3.388531 1.047534 3.378257
vt 3.388530 1.547534 3.378257
vt -3.388532 0.047534 1.689127
vt -3.388531 0.047534 -0.000001
vt -3.388531 0.047534 -1.689129
vt -3.388532 0.547534 3.378255
vt -3.388533 1.047534 3.378255
vt -3.388533 1.547534 3.378254
vt -3.388530 0.547534 -3.378257
vt -3.388531 1.047534 -3.378257
vt -3.388531 1.547534 -3.378256
vt 3.388532 2.047534 -1.689126
vt 3.388531 2.047534 0.000002
vt 3.388531 2.047534 1.689130
vt 1.694267 2.047534 -3.378255
vt 0.000001 2.047534 -3.378255
vt -1.694265 2.047534 -3.378255
vt 1.694264 2.047534 3.378257
vt -0.000002 2.047534 3.378256
vt -1.694267 2.047534 3.378255
vt -3.388533 2.047534 1.689127
vt -3.388532 2.047534 -0.000001
vt -3.388532 2.047534 -1.689128
vt 1.694267 1.547534 -3.378255
vt 0.000001 1.547534 -3.378255
vt -1.694265 1.547534 -3.378256
vt 1.694267 1.047534 -3.378255
vt 0.000001 1.047534 -3.378256
vt -1.694265 1.047534 -3.378256
vt 1.694267 0.547534 -3.378256
vt 0.000001 0.547534 -3.378256
vt -1.694265 0.547534 -3.378256
vt -3.388532 0.547534 1.689127
vt -3.388531 0.547534 -0.000001
vt -3.388531 0.547534 -1.689129
vt -3.388532 1.047534 1.689127
vt -3.388532 1.047534 -0.000001
vt -3.388531 1.047534 -1.689129
vt -3.388532 1.547534 1.689127
vt -3.388532 1.547534 -0.000001
vt -3.388531 1.547534 -1.689129
vt 1.694265 0.547534 3.378256
vt -0.000001 0.547534 3.378256
vt -1.694267 0.547534 3.378255
vt 1.694265 1.047534 3.378256
vt -0.000001 1.047534 3.378256
vt -1.694267 1.047534 3.378255
vt 1.694264 1.547534 3.378257
vt -0.000001 1.547534 3.378256
vt -1.694267 1.547534 3.378255
vt 3.388532 0.547534 -1.689127
vt 3.388532 0.547534 0.000000
vt 3.388531 0.547534 1.689128
vt 3.388532 1.047534 -1.689127
vt 3.388532 1.047534 0.000001
vt 3.388531 1.047534 1.689129
vt 3.388532 1.547534 -1.689126
vt 3.388532 1.547534 0.000001
vt 3.388531 1.547534 1.689129
vt 1.694266 0.047534 -1.689128
vt 0.000000 0.047534 -1.689129
vt -1.694265 0.047534 -1.689129
vt 1.694266 0.047534 -0.000000
vt 0.000000 0.047534 -0.000001
vt -1.694265 0.047534 -0.000001
vt 1.694266 0.047534 1.689128
vt 0.000000 0.047534 1.689127
vt -1.694266 0.047534 1.689127
vt 1.694265 0.047531 0.826802
vt -0.000000 0.047531 0.826802
vt 1.694266 1.547531 0.826803
vt 0.000000 1.547531 0.826803
vt 1.694266 1.047531 0.826803
vt 0.000000 1.047531 0.826802
vt 1.694266 0.547530 0.826802
vt -0.000000 0.547530 0.826802
vt 1.694266 1.047532 -0.488300
vt 1.694266 0.547532 -0.488300
vt 0.000000 1.547532 -0.488300
vt 0.000000 1.047532 -0.488300
vt -0.000000 0.047532 -0.488301
vt 1.694266 0.047532 -0.488301
vt 0.000000 0.547532 -0.488300
vt 1.694266 1.547532 -0.488299
vt -1.465153 1.047531 0.826802
vt -1.465153 1.547531 0.826802
vt -1.465153 0.547531 0.826802
vt -1.465153 0.981881 0.826801
vt -1.465153 1.547532 -0.488300
vt -1.465153 0.983690 -0.488301
vt -1.465153 1.047532 -0.488300
vt -1.465153 0.547532 -0.488301
vt 1.694266 0.136202 -3.378256
vt 0.000001 0.136202 -3.378256
vt 1.694266 0.136199 -0.488300
vt -0.000000 0.136199 -0.488301
vt 1.694266 0.047534 -1.689128
vt 0.000000 0.047534 -1.689129
vt 1.694266 0.047534 -0.000000
vt 0.000000 0.047534 -0.000001
vn 0.000000 -1.000000 -0.000000
vn 1.000000 0.000000 0.000000
vn -0.000000 0.000000 1.000000
vn -1.000000 0.000000 -0.000000
vn 0.000000 0.000000 -1.000000
vn -0.000000 0.959000 0.283500
vn 0.282700 0.959200 0.000000
vn -0.282700 0.959200 -0.000000
vn 0.000000 0.959000 -0.283500
vn -0.000000 1.000000 0.000000
vn 0.538400 0.842700 0.001200
vn 0.537700 0.843100 0.000000
s off
f 25//1 3//1 29//1
f 48//1 12//1 11//1
f 40//2 6//2 28//2
f 46//3 7//3 34//3
f 67//4 49//4 8//4
f 19//5 4//5 35//5
f 42//1 11//1 9//1
f 45//1 44//1 10//1
f 39//1 38//1 9//1
f 12//6 10//6 13//6
f 10//7 9//7 13//7
f 11//8 12//8 13//8
f 9//9 11//9 13//9
f 52//5 37//5 8//5
f 52//5 55//5 36//5
f 58//5 35//5 36//5
f 22//5 50//5 41//5
f 50//5 51//5 42//5
f 51//5 52//5 43//5
f 21//5 53//5 50//5
f 107//10 96//10 95//10
f 54//5 55//5 52//5
f 20//5 56//5 53//5
f 102//5 96//5 114//5
f 57//5 58//5 55//5
f 1//5 17//5 56//5
f 103//4 104//4 101//4
f 18//5 19//5 58//5
f 31//4 61//4 35//4
f 61//4 64//4 36//4
f 64//4 67//4 37//4
f 32//4 59//4 29//4
f 29//4 59//4 60//4
f 30//4 60//4 61//4
f 33//4 62//4 59//4
f 62//4 63//4 60//4
f 63//4 64//4 61//4
f 34//4 65//4 62//4
f 65//4 66//4 63//4
f 66//4 67//4 64//4
f 7//4 47//4 65//4
f 65//4 47//4 48//4
f 66//4 48//4 49//4
f 70//3 32//3 3//3
f 73//3 33//3 32//3
f 76//3 34//3 33//3
f 26//3 68//3 23//3
f 68//3 69//3 24//3
f 69//3 70//3 25//3
f 27//3 71//3 68//3
f 71//3 72//3 69//3
f 72//3 73//3 70//3
f 28//3 74//3 71//3
f 74//3 75//3 72//3
f 75//3 76//3 73//3
f 6//3 44//3 74//3
f 44//3 45//3 75//3
f 45//3 46//3 76//3
f 79//2 26//2 2//2
f 82//2 27//2 26//2
f 85//2 28//2 27//2
f 20//2 77//2 14//2
f 77//2 78//2 15//2
f 78//2 79//2 16//2
f 21//2 80//2 77//2
f 80//2 81//2 78//2
f 81//2 82//2 79//2
f 22//2 83//2 80//2
f 83//2 84//2 81//2
f 84//2 85//2 82//2
f 5//2 38//2 83//2
f 38//2 39//2 84//2
f 39//2 40//2 85//2
f 88//1 31//1 4//1
f 91//1 30//1 31//1
f 94//1 29//1 30//1
f 14//1 86//1 17//1
f 17//1 86//1 87//1
f 87//1 88//1 19//1
f 15//1 89//1 86//1
f 89//3 90//3 126//3
f 87//1 90//1 91//1
f 16//1 92//1 89//1
f 92//1 93//1 90//1
f 93//1 94//1 91//1
f 16//1 2//1 23//1
f 23//1 24//1 93//1
f 24//1 25//1 94//1
f 99//5 100//5 98//5
f 101//5 102//5 100//5
f 95//5 96//5 102//5
f 104//4 108//4 95//4
f 107//3 109//3 118//3
f 103//4 99//4 97//4
f 105//1 110//1 97//1
f 105//3 115//3 117//3
f 18//2 57//2 109//2
f 50//1 110//1 105//1
f 53//4 103//4 110//4
f 57//2 54//2 106//2
f 17//4 108//4 104//4
f 56//4 104//4 103//4
f 51//2 105//2 106//2
f 18//5 120//5 119//5
f 115//2 112//2 111//2
f 118//2 117//2 111//2
f 118//4 113//4 114//4
f 102//5 113//5 111//5
f 106//3 117//3 118//3
f 98//5 100//5 111//5
f 107//11 116//11 114//11
f 98//1 112//1 115//1
f 120//10 122//10 121//10
f 108//2 17//2 119//2
f 107//4 122//4 120//4
f 108//3 121//3 122//3
f 123//1 125//1 126//1
f 86//3 89//3 125//3
f 87//3 86//3 123//3
f 90//3 87//3 124//3
f 94//1 25//1 29//1
f 11//1 8//1 49//1
f 48//1 47//1 12//1
f 11//1 49//1 48//1
f 7//1 12//1 47//1
f 85//2 40//2 28//2
f 76//3 46//3 34//3
f 37//4 67//4 8//4
f 58//5 19//5 35//5
f 9//1 5//1 41//1
f 42//1 43//1 11//1
f 9//1 41//1 42//1
f 8//1 11//1 43//1
f 12//1 7//1 46//1
f 46//1 45//1 12//1
f 44//1 6//1 10//1
f 10//1 12//1 45//1
f 10//1 6//1 40//1
f 40//1 39//1 10//1
f 38//1 5//1 9//1
f 9//1 10//1 39//1
f 43//5 52//5 8//5
f 37//5 52//5 36//5
f 55//5 58//5 36//5
f 5//5 22//5 41//5
f 41//5 50//5 42//5
f 42//5 51//5 43//5
f 22//5 21//5 50//5
f 108//10 107//10 95//10
f 51//5 54//5 52//5
f 21//5 20//5 53//5
f 113//3 102//3 114//3
f 54//5 57//5 55//5
f 20//5 1//5 56//5
f 99//4 103//4 101//4
f 57//5 18//5 58//5
f 4//4 31//4 35//4
f 35//4 61//4 36//4
f 36//4 64//4 37//4
f 3//4 32//4 29//4
f 30//4 29//4 60//4
f 31//4 30//4 61//4
f 32//4 33//4 59//4
f 59//4 62//4 60//4
f 60//4 63//4 61//4
f 33//4 34//4 62//4
f 62//4 65//4 63//4
f 63//4 66//4 64//4
f 34//4 7//4 65//4
f 66//4 65//4 48//4
f 67//4 66//4 49//4
f 25//3 70//3 3//3
f 70//3 73//3 32//3
f 73//3 76//3 33//3
f 2//3 26//3 23//3
f 23//3 68//3 24//3
f 24//3 69//3 25//3
f 26//3 27//3 68//3
f 68//3 71//3 69//3
f 69//3 72//3 70//3
f 27//3 28//3 71//3
f 71//3 74//3 72//3
f 72//3 75//3 73//3
f 28//3 6//3 74//3
f 74//3 44//3 75//3
f 75//3 45//3 76//3
f 16//2 79//2 2//2
f 79//2 82//2 26//2
f 82//2 85//2 27//2
f 1//2 20//2 14//2
f 14//2 77//2 15//2
f 15//2 78//2 16//2
f 20//2 21//2 77//2
f 77//2 80//2 78//2
f 78//2 81//2 79//2
f 21//2 22//2 80//2
f 80//2 83//2 81//2
f 81//2 84//2 82//2
f 22//2 5//2 83//2
f 83//2 38//2 84//2
f 84//2 39//2 85//2
f 19//1 88//1 4//1
f 88//1 91//1 31//1
f 91//1 94//1 30//1
f 1//1 14//1 17//1
f 18//1 17//1 87//1
f 18//1 87//1 19//1
f 14//1 15//1 86//1
f 125//3 89//3 126//3
f 88//1 87//1 91//1
f 15//1 16//1 89//1
f 89//1 92//1 90//1
f 90//1 93//1 91//1
f 92//1 16//1 23//1
f 92//1 23//1 93//1
f 93//1 24//1 94//1
f 97//5 99//5 98//5
f 99//5 101//5 100//5
f 101//5 95//5 102//5
f 101//4 104//4 95//4
f 116//5 107//5 118//5
f 110//4 103//4 97//4
f 98//1 105//1 97//1
f 106//3 105//3 117//3
f 107//2 18//2 109//2
f 51//1 50//1 105//1
f 50//4 53//4 110//4
f 109//2 57//2 106//2
f 56//4 17//4 104//4
f 53//4 56//4 103//4
f 54//2 51//2 106//2
f 17//5 18//5 119//5
f 117//2 115//2 111//2
f 113//2 118//2 111//2
f 116//4 118//4 114//4
f 100//5 102//5 111//5
f 109//3 106//3 118//3
f 112//5 98//5 111//5
f 96//12 107//12 114//12
f 105//1 98//1 115//1
f 119//10 120//10 121//10
f 121//2 108//2 119//2
f 18//4 107//4 120//4
f 107//3 108//3 122//3
f 124//1 123//1 126//1
f 123//3 86//3 125//3
f 124//3 87//3 123//3
f 126//3 90//3 124//3
